<svg width="24" height="24" viewBox="0 0 24 24" fill="none" xmlns="http://www.w3.org/2000/svg">
<path d="M12.0001 3.60002C10.4088 3.60002 8.88268 4.23217 7.75746 5.35738C6.63224 6.4826 6.0001 8.00873 6.0001 9.60002C6.0001 10.9536 6.8041 12.5328 7.9321 14.052C9.0433 15.5472 10.3885 16.884 11.3137 17.7324C11.4995 17.9072 11.745 18.0045 12.0001 18.0045C12.2552 18.0045 12.5007 17.9072 12.6865 17.7324C13.6105 16.8828 14.9569 15.5484 16.0681 14.052C17.1961 12.5328 18.0001 10.9536 18.0001 9.60002C18.0001 8.00873 17.368 6.4826 16.2427 5.35738C15.1175 4.23217 13.5914 3.60002 12.0001 3.60002ZM4.8001 9.60002C4.8001 7.69047 5.55867 5.85912 6.90893 4.50886C8.25919 3.15859 10.0905 2.40002 12.0001 2.40002C13.9097 2.40002 15.741 3.15859 17.0913 4.50886C18.4415 5.85912 19.2001 7.69047 19.2001 9.60002C19.2001 11.3616 18.1885 13.2084 17.0317 14.7672C15.8557 16.35 14.4493 17.7432 13.4977 18.6156C13.0905 18.9934 12.5556 19.2033 12.0001 19.2033C11.4446 19.2033 10.9097 18.9934 10.5025 18.6156C9.5509 17.7432 8.1433 16.35 6.9685 14.7672C5.8117 13.2084 4.8001 11.3616 4.8001 9.60002ZM12.0001 7.80002C11.5227 7.80002 11.0649 7.98967 10.7273 8.32723C10.3897 8.6648 10.2001 9.12263 10.2001 9.60002C10.2001 10.0774 10.3897 10.5353 10.7273 10.8728C11.0649 11.2104 11.5227 11.4 12.0001 11.4C12.4775 11.4 12.9353 11.2104 13.2729 10.8728C13.6105 10.5353 13.8001 10.0774 13.8001 9.60002C13.8001 9.12263 13.6105 8.6648 13.2729 8.32723C12.9353 7.98967 12.4775 7.80002 12.0001 7.80002ZM9.0001 9.60002C9.0001 8.80438 9.31617 8.04131 9.87878 7.4787C10.4414 6.9161 11.2044 6.60002 12.0001 6.60002C12.7957 6.60002 13.5588 6.9161 14.1214 7.4787C14.684 8.04131 15.0001 8.80438 15.0001 9.60002C15.0001 10.3957 14.684 11.1587 14.1214 11.7213C13.5588 12.284 12.7957 12.6 12.0001 12.6C11.2044 12.6 10.4414 12.284 9.87878 11.7213C9.31617 11.1587 9.0001 10.3957 9.0001 9.60002ZM17.3041 16.3656C17.026 16.7028 16.7399 17.0333 16.4461 17.3568C16.7517 17.4432 17.0365 17.5372 17.3005 17.6388C17.9653 17.8944 18.4633 18.1848 18.7837 18.4764C19.1041 18.768 19.2001 19.0128 19.2001 19.2C19.2001 19.3872 19.1041 19.632 18.7837 19.9236C18.4633 20.2152 17.9653 20.5056 17.3005 20.7612C15.9733 21.2724 14.1001 21.6012 12.0001 21.6012C9.9001 21.6012 8.0269 21.2724 6.6997 20.7612C6.0349 20.5056 5.5369 20.2152 5.2165 19.9236C4.8961 19.632 4.8001 19.3872 4.8001 19.2C4.8001 19.0128 4.8961 18.768 5.2165 18.4764C5.5369 18.1848 6.0349 17.8944 6.6997 17.6388C6.97993 17.5315 7.26505 17.4374 7.5541 17.3568C7.25994 17.0336 6.97385 16.7031 6.6961 16.3656C6.55264 16.4138 6.41021 16.465 6.2689 16.5192C5.5237 16.806 4.8781 17.1624 4.4089 17.5884C3.9409 18.0144 3.6001 18.5592 3.6001 19.2C3.6001 19.842 3.9409 20.3856 4.4089 20.8116C4.8769 21.2376 5.5237 21.594 6.2689 21.882C7.7653 22.458 9.7921 22.8 12.0001 22.8C14.2081 22.8 16.2349 22.4568 17.7313 21.882C18.4765 21.594 19.1221 21.2376 19.5913 20.8116C20.0593 20.3856 20.4001 19.842 20.4001 19.2C20.4001 18.558 20.0593 18.0144 19.5913 17.5884C19.1233 17.1624 18.4765 16.806 17.7313 16.5192C17.59 16.465 17.4476 16.4138 17.3041 16.3656Z" fill="#19BDE8"/>
</svg>
