<svg width="61" height="61" viewBox="0 0 61 61" fill="none" xmlns="http://www.w3.org/2000/svg">
<path d="M47.1172 15.7747C47.0919 16.0278 47.0769 16.3166 47.0703 16.6297L43.4759 18.3462C42.9725 18.2637 40.4759 18.4091 36.7522 16.5716C35.8081 16.1056 34.8856 15.8581 33.9997 15.8581C33.1979 15.8589 32.4078 16.0501 31.6944 16.4159C30.7541 16.2125 29.3994 15.6912 28.6072 15.6931C26.8147 15.7025 22.7394 17.1622 21.6106 17.2869C20.5063 17.4078 19.3691 17.7116 18.2244 18.1953C16.1441 17.5897 13.5359 16.6006 12.1391 16.0541L2.375 8.9375V31.8219L9.55063 35.2362C9.65469 35.1144 9.77375 34.9269 9.90312 34.6944L10.1253 34.7975C10.2341 35.0788 10.3541 35.3587 10.4853 35.6375C9.69781 36.9631 9.60406 38.4566 10.2331 39.755C10.7722 40.8659 11.7762 41.6459 12.8947 41.8644C12.9556 42.5563 13.1881 43.2256 13.58 43.8059C14.2831 44.8438 15.4006 45.4634 16.5716 45.4634C16.6778 45.4634 16.7834 45.4578 16.8884 45.4466C17.0553 45.8975 17.3 46.3175 17.6178 46.6812C18.3247 47.4941 19.3147 47.96 20.3328 47.96C20.4078 47.96 20.4819 47.9575 20.555 47.9525C20.6844 48.4438 20.9047 48.9087 21.2122 49.3231C21.92 50.2794 23.0122 50.8484 24.1353 50.8484C24.8328 50.8484 25.4994 50.6347 26.0872 50.2344C27.2234 50.9637 28.2116 51.4766 29.0881 51.7916C29.5278 51.9706 29.9853 52.0625 30.4522 52.0625C31.5566 52.0625 32.6281 51.5469 33.3931 50.645C33.6772 50.3094 33.9078 49.9344 34.0766 49.5331C34.4071 49.6329 34.7504 49.684 35.0956 49.685C36.2694 49.685 37.3822 49.1103 38.1519 48.1053C38.5178 47.6292 38.7826 47.0834 38.93 46.5013C39.0106 46.5069 39.0906 46.5097 39.17 46.5097C40.5266 46.5097 41.825 45.7137 42.5553 44.4322C42.938 43.7655 43.1412 43.0109 43.145 42.2422C44.4856 42.0425 45.6659 41.0891 46.2406 39.6987C46.8069 38.3291 46.6531 36.8178 45.8628 35.5578L49.5144 33.5C49.6081 33.8206 49.7 34.1159 49.7891 34.3559L58.625 29.6544V10.4769L47.1172 15.7747ZM47.1162 18.6219C47.1744 19.6362 47.2803 20.7828 47.4172 21.98C46.6672 20.72 45.7203 20.1453 44.5447 19.8594L47.1162 18.6219ZM42.215 40.8931C40.2012 40.2003 36.0097 35.2728 36.0097 35.2728H36.0922C36.5187 35.2428 37.4403 34.7937 38.4744 35.0084C36.8506 33.6134 35.0647 34.7937 33.8487 34.0709C34.1309 34.9756 35.4875 35.2606 35.8353 35.2719L39.8516 39.9425C41.6703 42.0566 40.4038 44.6722 38.5803 45.0884C37.3569 44.4931 33.9022 40.3841 33.9022 40.3841C34.0203 40.3625 34.7206 40.1431 35.4341 40.2369C33.7869 39.005 31.9194 40.0738 30.8113 39.3003C31.4394 40.8519 33.5084 40.4544 33.725 40.4169L35.8737 43.16C37.5931 45.3538 36.2422 47.8878 34.4159 48.2309C32.7969 47.6619 31.7459 45.6369 31.7459 45.6369C31.9091 45.6106 32.4547 45.3678 33.2309 45.4803C31.85 44.27 30.2422 45.3678 29.2756 44.6787C29.8728 45.98 31.3616 45.6838 31.445 45.6744C32.9338 48.0191 31.3897 50.4641 29.5447 50.5372H29.5428L29.5409 50.5381C28.4328 50.3459 27.2722 49.46 25.9616 48.5506C26.4116 48.0519 26.8091 47.1753 26.8091 47.1753C28.1253 44.7922 26.4172 42.6847 24.6537 42.8656C26.0844 43.2566 27.1569 45.0828 26.0403 47.1106L25.55 47.9356C25.0175 48.9059 24.1859 49.4919 23.5747 49.4197C22.6334 49.3053 21.3069 47.9309 21.8647 45.9922C22.0803 45.7953 24.1597 42.6144 24.1597 42.6144C25.5894 40.3119 23.9844 38.1078 22.2162 38.1828C23.6244 38.6581 24.6116 40.5462 23.3975 42.5056L21.7072 45.1409C21.1306 46.0728 20.3844 46.6006 19.6728 46.5031C18.5684 46.3531 17.7941 45.0059 17.9712 43.6156C17.9619 43.6241 19.1881 42.2525 19.1881 42.2525C20.8175 40.1234 19.4225 37.7459 17.6572 37.6213C19.0138 38.2531 19.8219 40.2444 18.4372 42.0566L17.8391 42.7897C17.1828 43.6503 16.3925 44.0881 15.7006 43.9156C14.4931 43.6128 13.865 41.3534 14.4359 40.7375C14.885 40.2528 16.1459 38.7181 16.1459 38.7181C17.7744 36.5881 16.3813 34.2116 14.6141 34.085C15.9716 34.7188 16.7797 36.71 15.395 38.5231L14.7969 39.2544C14.1369 40.1225 13.3438 40.5584 12.6472 40.3813C11.1959 40.0138 10.4712 37.7731 11.8597 35.9544C11.8597 35.9544 11.3881 34.4562 11.1753 33.8159L10.4759 33.4916C12.1156 29.6713 14.5925 21.2394 14.7069 18.4381C15.9144 18.8684 19.1019 19.7853 19.4403 19.7872L19.4384 19.7891C22.8697 18.7109 26.4659 18.83 28.1066 18.1962C28.6381 17.9937 29.6956 17.9806 30.8169 18.6219C30.1166 19.2359 29.4547 19.9672 28.7675 20.6488C27.125 22.2791 21.0181 24.8216 22.1956 27.4953C23.2119 29.8025 26.0741 32.1631 30.875 28.4572L33.575 28.0859L37.7741 30.1578L43.1553 35.6844C45.0744 37.6512 43.9878 40.3212 42.215 40.8931ZM43.565 34.8041C42.9481 33.6509 41.0253 31.76 39.2103 30.2141L39.1991 30.2028C40.0363 30.2366 40.9147 28.8884 42.05 28.7844C41.2569 28.1788 39.9425 28.8781 39.5328 28.9888C37.2744 29.5963 33.7644 26.7547 33.7644 26.7547L30.4062 27.2384C30.4062 27.2384 26.4125 32.1125 23.0478 28.0972C21.2206 25.9166 27.8422 23.0684 29.4734 21.4475C31.5631 19.3709 33.425 16.8303 36.8628 18.5609C39.7184 20.0009 40.8434 19.9119 44.6741 20.5784C45.8159 20.7781 46.6072 21.3013 47.4556 22.3222C47.855 25.6822 48.5009 29.4088 49.1206 32.0019C48.8009 32.2709 46.0606 34.1141 43.565 34.8041Z" fill="#19BDE8"/>
</svg>
