<svg width="61" height="61" viewBox="0 0 61 61" fill="none" xmlns="http://www.w3.org/2000/svg">
<path d="M31.75 48V55.5M26.75 55.5H36.75" stroke="#19BDE8" stroke-width="3" stroke-linecap="round" stroke-linejoin="round"/>
<path d="M34.25 40.5C24.585 40.5 16.75 32.665 16.75 23C16.75 13.335 24.585 5.5 34.25 5.5C43.915 5.5 51.75 13.335 51.75 23C51.75 32.665 43.915 40.5 34.25 40.5Z" stroke="#19BDE8" stroke-width="3" stroke-linecap="round" stroke-linejoin="round"/>
<path d="M21.75 10.5C23.385 10.595 24.23 11.3975 25.6825 12.9325C28.3075 15.7075 30.9325 15.9375 32.6825 15.0125C35.305 13.625 33.1 11.38 36.18 10.1625C38.1875 9.3625 38.4675 7.2 37.35 5.5M50.5 25.5C46.75 25.5 46.085 28.6175 43 28C36.75 26.75 34.98 28.1475 34.98 31.1275C34.98 34.1075 34.98 34.1075 33.68 36.3425C32.835 37.7975 32.5375 39.25 34.2225 40.5" stroke="#19BDE8" stroke-width="3" stroke-linecap="round" stroke-linejoin="round"/>
<path d="M16.75 5.5C14.376 7.79752 12.4885 10.5493 11.2 13.5914C9.91154 16.6335 9.24837 19.9038 9.25 23.2075C9.25 36.9 20.4425 48 34.25 48C40.7855 48.0158 47.0673 45.4716 51.75 40.9125" stroke="#19BDE8" stroke-width="3" stroke-linecap="round" stroke-linejoin="round"/>
</svg>
