<svg width="60" height="61" viewBox="0 0 60 61" fill="none" xmlns="http://www.w3.org/2000/svg">
<path d="M44.9688 25.0375C44.1812 25.0375 43.5625 24.4187 43.5625 23.6312V12.7187C43.5625 11.9312 42.9438 11.3125 42.1562 11.3125H16.8438C16.0563 11.3125 15.4375 11.9312 15.4375 12.7187V18.3437C15.4375 19.1312 14.8187 19.75 14.0312 19.75C13.2437 19.75 12.625 19.1312 12.625 18.3437V12.7187C12.625 10.3844 14.5094 8.5 16.8438 8.5H42.1562C44.4906 8.5 46.375 10.3844 46.375 12.7187V23.6312C46.375 24.4187 45.7562 25.0375 44.9688 25.0375Z" fill="#19BDE8"/>
<path d="M47.7812 53.5H11.2188C8.88438 53.5 7 51.6156 7 49.2812V21.1562C7 18.8219 8.88438 16.9375 11.2188 16.9375H24.5781C25.0281 16.9375 25.45 17.1344 25.7031 17.5L29.5 22.5625H47.7812C50.1156 22.5625 52 24.4469 52 26.7812V49.2812C52 51.6156 50.1156 53.5 47.7812 53.5ZM11.2188 19.75C10.4313 19.75 9.8125 20.3688 9.8125 21.1562V49.2812C9.8125 50.0687 10.4313 50.6875 11.2188 50.6875H47.7812C48.5687 50.6875 49.1875 50.0687 49.1875 49.2812V26.7812C49.1875 25.9937 48.5687 25.375 47.7812 25.375H28.7969C28.5778 25.3796 28.3609 25.3308 28.1649 25.2328C27.9689 25.1348 27.7997 24.9905 27.6719 24.8125L23.875 19.75H11.2188Z" fill="#19BDE8"/>
<path d="M22.4688 45.0625H16.8438C16.0562 45.0625 15.4375 44.4437 15.4375 43.6562C15.4375 42.8687 16.0562 42.25 16.8438 42.25H22.4688C23.2562 42.25 23.875 42.8687 23.875 43.6562C23.875 44.4437 23.2562 45.0625 22.4688 45.0625Z" fill="#19BDE8"/>
</svg>
