<svg width="34" height="34" viewBox="0 0 34 34" fill="none" xmlns="http://www.w3.org/2000/svg">
<g opacity="0.75" clip-path="url(#clip0_2976_1212)">
<path d="M19.25 7H10.75C8.67893 7 7 8.67893 7 10.75V19.25C7 21.3211 8.67893 23 10.75 23H19.25C21.3211 23 23 21.3211 23 19.25V10.75C23 8.67893 21.3211 7 19.25 7Z" fill="url(#paint0_radial_2976_1212)"/>
<path d="M19.25 7H10.75C8.67893 7 7 8.67893 7 10.75V19.25C7 21.3211 8.67893 23 10.75 23H19.25C21.3211 23 23 21.3211 23 19.25V10.75C23 8.67893 21.3211 7 19.25 7Z" fill="url(#paint1_radial_2976_1212)"/>
<path d="M15.0006 8.75C13.3032 8.75 13.0901 8.75744 12.4235 8.78775C11.7581 8.81825 11.3039 8.92356 10.9066 9.07812C10.4954 9.23775 10.1468 9.45131 9.79938 9.79881C9.45169 10.1462 9.23813 10.4949 9.078 10.9059C8.923 11.3034 8.81756 11.7577 8.78762 12.4228C8.75781 13.0895 8.75 13.3026 8.75 15.0001C8.75 16.6975 8.7575 16.9099 8.78775 17.5765C8.81838 18.2419 8.92369 18.6961 9.07812 19.0934C9.23787 19.5046 9.45144 19.8533 9.79894 20.2006C10.1463 20.5483 10.4949 20.7624 10.9058 20.922C11.3034 21.0766 11.7577 21.1819 12.4229 21.2124C13.0896 21.2427 13.3025 21.2501 14.9998 21.2501C16.6974 21.2501 16.9097 21.2427 17.5764 21.2124C18.2418 21.1819 18.6964 21.0766 19.0941 20.922C19.5051 20.7624 19.8532 20.5483 20.2005 20.2006C20.5482 19.8533 20.7617 19.5046 20.9219 19.0936C21.0755 18.6961 21.181 18.2417 21.2122 17.5766C21.2422 16.91 21.25 16.6975 21.25 15.0001C21.25 13.3026 21.2422 13.0896 21.2122 12.4229C21.181 11.7576 21.0755 11.3034 20.9219 10.9061C20.7617 10.4949 20.5482 10.1462 20.2005 9.79881C19.8529 9.45119 19.5052 9.23762 19.0938 9.07819C18.6953 8.92356 18.2409 8.81819 17.5755 8.78775C16.9088 8.75744 16.6966 8.75 14.9986 8.75H15.0006ZM14.4399 9.87631C14.6063 9.87606 14.792 9.87631 15.0006 9.87631C16.6694 9.87631 16.8671 9.88231 17.5261 9.91225C18.1355 9.94013 18.4663 10.0419 18.6866 10.1275C18.9783 10.2408 19.1862 10.3762 19.4048 10.595C19.6236 10.8138 19.7589 11.0221 19.8725 11.3137C19.9581 11.5337 20.06 11.8645 20.0878 12.4739C20.1177 13.1328 20.1242 13.3306 20.1242 14.9986C20.1242 16.6666 20.1177 16.8646 20.0878 17.5234C20.0599 18.1327 19.9581 18.4635 19.8725 18.6836C19.7593 18.9752 19.6236 19.1829 19.4048 19.4016C19.1861 19.6203 18.9784 19.7557 18.6866 19.869C18.4665 19.9549 18.1355 20.0565 17.5261 20.0844C16.8672 20.1143 16.6694 20.1208 15.0006 20.1208C13.3317 20.1208 13.1339 20.1143 12.4751 20.0844C11.8657 20.0563 11.5349 19.9544 11.3144 19.8689C11.0228 19.7556 10.8144 19.6202 10.5957 19.4014C10.3769 19.1827 10.2416 18.9749 10.128 18.6831C10.0424 18.463 9.9405 18.1322 9.91275 17.5229C9.88281 16.864 9.87681 16.6661 9.87681 14.9971C9.87681 13.328 9.88281 13.1312 9.91275 12.4723C9.94063 11.8629 10.0424 11.5322 10.128 11.3119C10.2413 11.0202 10.3769 10.8119 10.5958 10.5931C10.8146 10.3744 11.0228 10.2389 11.3145 10.1254C11.5348 10.0395 11.8657 9.93794 12.4751 9.90994C13.0516 9.88387 13.2751 9.87606 14.4399 9.87475V9.87631ZM18.3368 10.9141C17.9228 10.9141 17.5868 11.2497 17.5868 11.6638C17.5868 12.0779 17.9228 12.4138 18.3368 12.4138C18.7509 12.4138 19.0868 12.0779 19.0868 11.6638C19.0868 11.2498 18.7509 10.9138 18.3368 10.9138V10.9141ZM15.0006 11.7904C13.2281 11.7904 11.7909 13.2275 11.7909 15.0001C11.7909 16.7726 13.2281 18.2091 15.0006 18.2091C16.7731 18.2091 18.2098 16.7726 18.2098 15.0001C18.2098 13.2276 16.773 11.7904 15.0004 11.7904H15.0006ZM15.0006 12.9167C16.1511 12.9167 17.0839 13.8494 17.0839 15.0001C17.0839 16.1506 16.1511 17.0834 15.0006 17.0834C13.85 17.0834 12.9173 16.1506 12.9173 15.0001C12.9173 13.8494 13.8499 12.9167 15.0006 12.9167Z" fill="white"/>
</g>
<g filter="url(#filter0_dii_2976_1212)">
<circle cx="15" cy="15" r="12" fill="url(#paint2_linear_2976_1212)" fill-opacity="0.2" shape-rendering="crispEdges"/>
</g>
<g filter="url(#filter1_f_2976_1212)">
<path d="M22.5 8.5C22.5 9.66923 15.6192 8 14.7907 8C13.9623 8 7 9.66923 7 8.5C7 7.33077 13.9623 5 14.7907 5C15.6192 5 22.5 7.33077 22.5 8.5Z" fill="#D9D9D9"/>
</g>
<g filter="url(#filter2_f_2976_1212)">
<path d="M6.27378 11.6652C6.11108 12.193 5.70831 13.5642 5.5 13.5C5.2917 13.4358 5.35675 11.9604 5.51945 11.4326C5.68216 10.9049 6.2917 9.93578 6.5 10C6.70831 10.0642 6.43648 11.1374 6.27378 11.6652Z" fill="#D9D9D9"/>
</g>
<defs>
<filter id="filter0_dii_2976_1212" x="0" y="0" width="34" height="34" filterUnits="userSpaceOnUse" color-interpolation-filters="sRGB">
<feFlood flood-opacity="0" result="BackgroundImageFix"/>
<feColorMatrix in="SourceAlpha" type="matrix" values="0 0 0 0 0 0 0 0 0 0 0 0 0 0 0 0 0 0 127 0" result="hardAlpha"/>
<feOffset dx="2" dy="2"/>
<feGaussianBlur stdDeviation="2.5"/>
<feComposite in2="hardAlpha" operator="out"/>
<feColorMatrix type="matrix" values="0 0 0 0 0 0 0 0 0 0 0 0 0 0 0 0 0 0 0.7 0"/>
<feBlend mode="normal" in2="BackgroundImageFix" result="effect1_dropShadow_2976_1212"/>
<feBlend mode="normal" in="SourceGraphic" in2="effect1_dropShadow_2976_1212" result="shape"/>
<feColorMatrix in="SourceAlpha" type="matrix" values="0 0 0 0 0 0 0 0 0 0 0 0 0 0 0 0 0 0 127 0" result="hardAlpha"/>
<feOffset dx="1" dy="1"/>
<feGaussianBlur stdDeviation="2.5"/>
<feComposite in2="hardAlpha" operator="arithmetic" k2="-1" k3="1"/>
<feColorMatrix type="matrix" values="0 0 0 0 0 0 0 0 0 0 0 0 0 0 0 0 0 0 0.25 0"/>
<feBlend mode="normal" in2="shape" result="effect2_innerShadow_2976_1212"/>
<feColorMatrix in="SourceAlpha" type="matrix" values="0 0 0 0 0 0 0 0 0 0 0 0 0 0 0 0 0 0 127 0" result="hardAlpha"/>
<feOffset dx="-1" dy="-1"/>
<feGaussianBlur stdDeviation="2.5"/>
<feComposite in2="hardAlpha" operator="arithmetic" k2="-1" k3="1"/>
<feColorMatrix type="matrix" values="0 0 0 0 1 0 0 0 0 1 0 0 0 0 1 0 0 0 0.25 0"/>
<feBlend mode="normal" in2="effect2_innerShadow_2976_1212" result="effect3_innerShadow_2976_1212"/>
</filter>
<filter id="filter1_f_2976_1212" x="3" y="1" width="23.5" height="11.9156" filterUnits="userSpaceOnUse" color-interpolation-filters="sRGB">
<feFlood flood-opacity="0" result="BackgroundImageFix"/>
<feBlend mode="normal" in="SourceGraphic" in2="BackgroundImageFix" result="shape"/>
<feGaussianBlur stdDeviation="2" result="effect1_foregroundBlur_2976_1212"/>
</filter>
<filter id="filter2_f_2976_1212" x="3.86884" y="8.49696" width="4.20663" height="6.50522" filterUnits="userSpaceOnUse" color-interpolation-filters="sRGB">
<feFlood flood-opacity="0" result="BackgroundImageFix"/>
<feBlend mode="normal" in="SourceGraphic" in2="BackgroundImageFix" result="shape"/>
<feGaussianBlur stdDeviation="0.75" result="effect1_foregroundBlur_2976_1212"/>
</filter>
<radialGradient id="paint0_radial_2976_1212" cx="0" cy="0" r="1" gradientUnits="userSpaceOnUse" gradientTransform="translate(11.25 24.2323) rotate(-90) scale(15.8572 14.7484)">
<stop stop-color="#FFDD55"/>
<stop offset="0.1" stop-color="#FFDD55"/>
<stop offset="0.5" stop-color="#FF543E"/>
<stop offset="1" stop-color="#C837AB"/>
</radialGradient>
<radialGradient id="paint1_radial_2976_1212" cx="0" cy="0" r="1" gradientUnits="userSpaceOnUse" gradientTransform="translate(4.31994 8.15256) rotate(78.681) scale(7.08825 29.218)">
<stop stop-color="#3771C8"/>
<stop offset="0.128" stop-color="#3771C8"/>
<stop offset="1" stop-color="#6600FF" stop-opacity="0"/>
</radialGradient>
<linearGradient id="paint2_linear_2976_1212" x1="15" y1="-3.5" x2="15.5" y2="33.5" gradientUnits="userSpaceOnUse">
<stop stop-color="white" stop-opacity="0.22"/>
<stop offset="1" stop-opacity="0.22"/>
</linearGradient>
<clipPath id="clip0_2976_1212">
<rect width="16" height="16" fill="white" transform="translate(7 7)"/>
</clipPath>
</defs>
</svg>
