<svg width="116" height="29" viewBox="0 0 116 29" fill="none" xmlns="http://www.w3.org/2000/svg">
<path d="M91.6274 21.5527C91.6274 25.9925 88.1046 28.562 81.3513 28.562H68.0664V2.87277H80.6177C87.0386 2.87277 90.3417 5.55119 90.3417 9.55156C90.3417 12.121 89.0216 14.1021 86.9297 15.2044C89.7915 16.1214 91.6274 18.3222 91.6274 21.5527ZM73.9752 7.35072V13.4048H79.8823C82.7877 13.4048 84.3602 12.3771 84.3602 10.3596C84.3602 8.34219 82.7822 7.35072 79.8823 7.35072H73.9752ZM85.644 20.9335C85.644 18.7689 83.9934 17.7412 80.9101 17.7412H73.9752V24.0967H80.9101C83.9934 24.084 85.644 23.1307 85.644 20.9335Z" fill="white"/>
<path d="M94.1223 26.0309L96.1397 21.553C98.3061 23.131 101.535 24.2314 104.618 24.2314C108.141 24.2314 109.572 23.0583 109.572 21.4803C109.572 16.6719 94.6362 19.975 94.6362 10.4326C94.6362 6.06538 98.159 2.43181 105.462 2.43181C108.691 2.43181 112 3.20356 114.38 4.70711L112.544 9.22137C110.16 7.86491 107.7 7.20393 105.424 7.20393C101.901 7.20393 100.543 8.52407 100.543 10.1402C100.543 14.8742 115.481 11.6074 115.481 21.0355C115.481 25.33 111.921 28.9999 104.585 28.9999C100.507 29.0035 96.3976 27.7923 94.1223 26.0309Z" fill="white"/>
<path d="M48.6019 0V23.9805L58.8597 17.8464L48.6019 0Z" fill="#73CEE7"/>
<path d="M58.8597 17.8466L48.6019 23.9807L65.0192 28.5621L58.8597 17.8466Z" fill="#1DBCE7"/>
<path d="M48.602 0V23.9805H48.6002L38.3423 17.8464L48.602 0Z" fill="#1DBCE7"/>
<path d="M38.3422 17.8466L48.6001 23.9807L32.1827 28.5621L38.3422 17.8466Z" fill="#138DAD"/>
<path d="M0.0054474 2.45487C1.58526 2.45487 3.16688 2.4349 4.74488 2.45487C4.85132 2.47318 4.95267 2.5139 5.0422 2.57432C5.13173 2.63473 5.20741 2.71348 5.26422 2.80534C7.49533 6.49278 9.71796 10.1851 11.9321 13.8822C13.6947 16.8166 15.4628 19.7487 17.2363 22.6783C17.3258 22.7929 17.3745 22.9342 17.3745 23.0796C17.3745 23.225 17.3258 23.3663 17.2363 23.4809C16.8586 24.0565 16.5009 24.6449 16.1686 25.2459C16.1149 25.3576 16.0269 25.4493 15.9175 25.5074C15.808 25.5656 15.6828 25.5872 15.5602 25.5692C14.9392 25.5528 14.3164 25.5383 13.6953 25.5692C13.3539 25.5873 13.1923 25.4439 13.0289 25.1751C10.7046 21.3545 8.37542 17.5327 6.04142 13.7097C5.95415 13.559 5.82894 13.4338 5.67824 13.3465V28.3547H4.93555C3.48285 28.3547 2.04467 28.3547 0.599237 28.3547C0.39949 28.3547 0.199746 28.322 0 28.3039L0.0054474 2.45487Z" fill="white"/>
<path d="M29.2484 2.44216V28.3039H23.5847V13.1994L23.4412 13.1631L19.8186 19.1664C19.7366 19.0803 19.6608 18.9887 19.5916 18.8922C18.8017 17.5847 18.0245 16.27 17.2219 14.9699C17.1439 14.8644 17.1026 14.7363 17.1043 14.6052C17.1059 14.474 17.1504 14.347 17.2309 14.2435C19.4838 10.4484 21.7295 6.64894 23.9678 2.84529C24.0279 2.71098 24.1285 2.59883 24.2555 2.52458C24.3825 2.45033 24.5295 2.4177 24.676 2.43126C26.0216 2.45305 27.3672 2.44035 28.7127 2.44035L29.2484 2.44216Z" fill="white"/>
</svg>
