<svg width="34" height="34" viewBox="0 0 34 34" fill="none" xmlns="http://www.w3.org/2000/svg">
<path fill-rule="evenodd" clip-rule="evenodd" d="M17.0147 9.22867C17.3533 9.17067 17.7327 9.15133 18.09 9.212C18.7265 9.31951 19.3163 9.61509 19.7833 10.0607C20.0873 10.0673 20.3867 10.0073 20.6513 9.922C20.9071 9.83837 21.1526 9.72634 21.3833 9.588L21.3893 9.584C21.4853 9.52004 21.6005 9.49124 21.7153 9.50248C21.8301 9.51373 21.9375 9.56432 22.0193 9.6457C22.101 9.72707 22.1522 9.83422 22.164 9.94897C22.1758 10.0637 22.1475 10.179 22.084 10.2753C21.946 10.4853 21.7533 10.86 21.538 11.28L21.4347 11.4807C21.3113 11.7207 21.1847 11.9633 21.0667 12.1713C20.9927 12.302 20.9133 12.4347 20.8333 12.5493V12.732C20.8415 13.8244 20.6321 14.9075 20.2172 15.9181C19.8023 16.9288 19.1902 17.8466 18.4168 18.6181C17.6433 19.3896 16.724 19.9994 15.7123 20.4118C14.7007 20.8242 13.6171 21.0309 12.5247 21.02C10.9415 21.0222 9.39159 20.5661 8.06201 19.7067C7.96656 19.6453 7.8948 19.5534 7.85853 19.4459C7.82225 19.3384 7.82361 19.2218 7.86238 19.1151C7.90115 19.0085 7.97503 18.9183 8.07188 18.8592C8.16873 18.8001 8.28279 18.7757 8.39534 18.79C8.59534 18.8144 8.79645 18.8267 8.99867 18.8267C9.71909 18.824 10.4304 18.6658 11.084 18.3627C10.6746 18.1764 10.3085 17.907 10.0089 17.5715C9.70933 17.236 9.48289 16.8418 9.34401 16.414C9.31754 16.3321 9.31266 16.2448 9.32982 16.1605C9.34699 16.0761 9.38563 15.9977 9.44201 15.9327L9.44867 15.926C9.11041 15.6245 8.83929 15.2553 8.65289 14.8423C8.46649 14.4293 8.36898 13.9818 8.36667 13.5287V13.4933C8.36662 13.3836 8.4027 13.2768 8.46932 13.1896C8.53595 13.1024 8.62943 13.0395 8.73534 13.0107C8.50969 12.5604 8.39257 12.0636 8.39334 11.56C8.39296 10.9888 8.54237 10.4274 8.82667 9.932C8.86706 9.86167 8.92396 9.80222 8.99245 9.75878C9.06094 9.71534 9.13897 9.68921 9.21981 9.68265C9.30064 9.67609 9.38187 9.68929 9.45646 9.72111C9.53106 9.75294 9.5968 9.80244 9.64801 9.86533C10.8146 11.3014 12.485 12.2385 14.3187 12.4853C14.3028 11.8855 14.4541 11.293 14.7557 10.7742C15.0574 10.2555 15.4974 9.83088 16.0267 9.548C16.2947 9.40533 16.6493 9.29133 17.0147 9.22867ZM9.49467 14.2607C9.62413 14.625 9.84596 14.9495 10.1385 15.2024C10.431 15.4553 10.7841 15.6279 11.1633 15.7033C11.2726 15.7251 11.3715 15.7827 11.4442 15.8671C11.517 15.9514 11.5595 16.0577 11.565 16.169C11.5705 16.2802 11.5387 16.3901 11.4747 16.4813C11.4106 16.5724 11.3179 16.6395 11.2113 16.672C11.0296 16.7271 10.8442 16.7656 10.6553 16.7873C10.8602 17.0515 11.1217 17.2664 11.4204 17.4164C11.7192 17.5664 12.0478 17.6475 12.382 17.654C12.4851 17.6559 12.5851 17.6897 12.6683 17.7507C12.7514 17.8117 12.8137 17.8969 12.8465 17.9946C12.8794 18.0924 12.8812 18.1979 12.8518 18.2967C12.8223 18.3955 12.763 18.4829 12.682 18.5467C11.9865 19.0931 11.1788 19.4789 10.3167 19.6767C11.0305 19.9054 11.7757 20.0212 12.5253 20.02H12.5313C13.4914 20.03 14.4437 19.8487 15.3329 19.4865C16.222 19.1244 17.0301 18.5887 17.7099 17.9108C18.3897 17.2328 18.9276 16.4262 19.2922 15.5381C19.6568 14.6499 19.8407 13.698 19.8333 12.738V12.3813C19.8332 12.2599 19.8773 12.1426 19.9573 12.0513C20.004 11.9987 20.084 11.8773 20.1973 11.678C20.304 11.49 20.4227 11.2633 20.546 11.024L20.568 10.98C20.2198 11.0583 19.8612 11.0801 19.506 11.0447C19.3859 11.0316 19.2746 10.9755 19.1927 10.8867C18.8574 10.5231 18.411 10.2811 17.9233 10.1987C17.6774 10.1636 17.4274 10.1693 17.1833 10.2153C16.9454 10.2523 16.7144 10.3249 16.498 10.4307C16.0618 10.6637 15.7153 11.035 15.5128 11.4863C15.3103 11.9375 15.2634 12.4432 15.3793 12.924C15.3976 12.9996 15.3979 13.0784 15.3804 13.1542C15.3628 13.23 15.3278 13.3006 15.2782 13.3605C15.2285 13.4203 15.1656 13.4678 15.0944 13.4991C15.0232 13.5304 14.9457 13.5446 14.868 13.5407C12.8199 13.4364 10.8836 12.5746 9.43534 11.1227C9.40717 11.267 9.3931 11.4137 9.39334 11.5607V11.562C9.39259 11.9292 9.48265 12.2908 9.65549 12.6148C9.82833 12.9387 10.0786 13.2149 10.384 13.4187C10.4737 13.479 10.5414 13.5668 10.577 13.6689C10.6126 13.771 10.6141 13.8819 10.5813 13.9849C10.5486 14.0879 10.4834 14.1776 10.3954 14.2404C10.3074 14.3032 10.2014 14.3358 10.0933 14.3333C9.8922 14.327 9.69205 14.3024 9.49534 14.26" fill="white"/>
<g filter="url(#filter0_dii_2909_1545)">
<circle cx="15" cy="15" r="12" fill="url(#paint0_linear_2909_1545)" fill-opacity="0.2" shape-rendering="crispEdges"/>
</g>
<g filter="url(#filter1_f_2909_1545)">
<path d="M22.5 8.5C22.5 9.66923 15.6192 8 14.7907 8C13.9623 8 7 9.66923 7 8.5C7 7.33077 13.9623 5 14.7907 5C15.6192 5 22.5 7.33077 22.5 8.5Z" fill="#D9D9D9"/>
</g>
<g filter="url(#filter2_f_2909_1545)">
<path d="M6.27378 11.6652C6.11108 12.193 5.70831 13.5642 5.5 13.5C5.2917 13.4358 5.35675 11.9604 5.51945 11.4326C5.68216 10.9049 6.2917 9.93578 6.5 10C6.70831 10.0642 6.43648 11.1374 6.27378 11.6652Z" fill="#D9D9D9"/>
</g>
<defs>
<filter id="filter0_dii_2909_1545" x="0" y="0" width="34" height="34" filterUnits="userSpaceOnUse" color-interpolation-filters="sRGB">
<feFlood flood-opacity="0" result="BackgroundImageFix"/>
<feColorMatrix in="SourceAlpha" type="matrix" values="0 0 0 0 0 0 0 0 0 0 0 0 0 0 0 0 0 0 127 0" result="hardAlpha"/>
<feOffset dx="2" dy="2"/>
<feGaussianBlur stdDeviation="2.5"/>
<feComposite in2="hardAlpha" operator="out"/>
<feColorMatrix type="matrix" values="0 0 0 0 0 0 0 0 0 0 0 0 0 0 0 0 0 0 0.7 0"/>
<feBlend mode="normal" in2="BackgroundImageFix" result="effect1_dropShadow_2909_1545"/>
<feBlend mode="normal" in="SourceGraphic" in2="effect1_dropShadow_2909_1545" result="shape"/>
<feColorMatrix in="SourceAlpha" type="matrix" values="0 0 0 0 0 0 0 0 0 0 0 0 0 0 0 0 0 0 127 0" result="hardAlpha"/>
<feOffset dx="1" dy="1"/>
<feGaussianBlur stdDeviation="2.5"/>
<feComposite in2="hardAlpha" operator="arithmetic" k2="-1" k3="1"/>
<feColorMatrix type="matrix" values="0 0 0 0 0 0 0 0 0 0 0 0 0 0 0 0 0 0 0.25 0"/>
<feBlend mode="normal" in2="shape" result="effect2_innerShadow_2909_1545"/>
<feColorMatrix in="SourceAlpha" type="matrix" values="0 0 0 0 0 0 0 0 0 0 0 0 0 0 0 0 0 0 127 0" result="hardAlpha"/>
<feOffset dx="-1" dy="-1"/>
<feGaussianBlur stdDeviation="2.5"/>
<feComposite in2="hardAlpha" operator="arithmetic" k2="-1" k3="1"/>
<feColorMatrix type="matrix" values="0 0 0 0 1 0 0 0 0 1 0 0 0 0 1 0 0 0 0.25 0"/>
<feBlend mode="normal" in2="effect2_innerShadow_2909_1545" result="effect3_innerShadow_2909_1545"/>
</filter>
<filter id="filter1_f_2909_1545" x="3" y="1" width="23.5" height="11.9156" filterUnits="userSpaceOnUse" color-interpolation-filters="sRGB">
<feFlood flood-opacity="0" result="BackgroundImageFix"/>
<feBlend mode="normal" in="SourceGraphic" in2="BackgroundImageFix" result="shape"/>
<feGaussianBlur stdDeviation="2" result="effect1_foregroundBlur_2909_1545"/>
</filter>
<filter id="filter2_f_2909_1545" x="3.86884" y="8.49696" width="4.20663" height="6.50522" filterUnits="userSpaceOnUse" color-interpolation-filters="sRGB">
<feFlood flood-opacity="0" result="BackgroundImageFix"/>
<feBlend mode="normal" in="SourceGraphic" in2="BackgroundImageFix" result="shape"/>
<feGaussianBlur stdDeviation="0.75" result="effect1_foregroundBlur_2909_1545"/>
</filter>
<linearGradient id="paint0_linear_2909_1545" x1="15" y1="-3.5" x2="15.5" y2="33.5" gradientUnits="userSpaceOnUse">
<stop stop-color="white" stop-opacity="0.22"/>
<stop offset="1" stop-opacity="0.22"/>
</linearGradient>
</defs>
</svg>
